REM DIRINDEX 1\5,1\2\6,1\2\7,1\3\8,1\3\9,1\4\10,1\4\11,1\4\12
REM DIRNAME folder01,folder02,folder03,folder04,folder05,folder06,folder07,folder08,folder09,folder10,folder11,folder12
TITLE ""
FILE "EJE_DB3000_5th_5C_03.mp3" MP3
  TRACK 01 AUDIO
    TITLE "0:"
    INDEX 01 00:00:00
  TRACK 02 AUDIO
    TITLE "10:cjc026_10197"
    INDEX 01 00:00:05
  TRACK 03 AUDIO
    TITLE "0:"
    INDEX 01 00:00:64
  TRACK 04 AUDIO
    TITLE "11:cjc026_10198"
    INDEX 01 00:01:17
  TRACK 05 AUDIO
    TITLE "0:"
    INDEX 01 00:02:08
  TRACK 06 AUDIO
    TITLE "12:cjc026_10199"
    INDEX 01 00:02:34
  TRACK 07 AUDIO
    TITLE "0:"
    INDEX 01 00:03:19
  TRACK 08 AUDIO
    TITLE "10:cjc026_10200"
    INDEX 01 00:03:45
  TRACK 09 AUDIO
    TITLE "0:"
    INDEX 01 00:04:40
  TRACK 10 AUDIO
    TITLE "11:cjc026_10201"
    INDEX 01 00:04:66
  TRACK 11 AUDIO
    TITLE "0:"
    INDEX 01 00:05:61
  TRACK 12 AUDIO
    TITLE "12:cjc026_10202"
    INDEX 01 00:06:12
  TRACK 13 AUDIO
    TITLE "0:"
    INDEX 01 00:07:07
  TRACK 14 AUDIO
    TITLE "10:cjc026_10203"
    INDEX 01 00:07:35
  TRACK 15 AUDIO
    TITLE "0:"
    INDEX 01 00:08:32
  TRACK 16 AUDIO
    TITLE "11:cjc026_10204"
    INDEX 01 00:08:56
  TRACK 17 AUDIO
    TITLE "0:"
    INDEX 01 00:09:59
  TRACK 18 AUDIO
    TITLE "12:cjc026_10205"
    INDEX 01 00:10:10
  TRACK 19 AUDIO
    TITLE "0:"
    INDEX 01 00:11:09
  TRACK 20 AUDIO
    TITLE "10:cjc026_10206"
    INDEX 01 00:11:33
  TRACK 21 AUDIO
    TITLE "0:"
    INDEX 01 00:12:32
  TRACK 22 AUDIO
    TITLE "11:cjc026_10207"
    INDEX 01 00:12:60
  TRACK 23 AUDIO
    TITLE "0:"
    INDEX 01 00:13:59
  TRACK 24 AUDIO
    TITLE "12:cjc026_10208"
    INDEX 01 00:14:09
  TRACK 25 AUDIO
    TITLE "0:"
    INDEX 01 00:15:09
  TRACK 26 AUDIO
    TITLE "10:cjc026_10209"
    INDEX 01 00:15:34
  TRACK 27 AUDIO
    TITLE "0:"
    INDEX 01 00:16:26
  TRACK 28 AUDIO
    TITLE "11:cjc026_10210"
    INDEX 01 00:16:55
  TRACK 29 AUDIO
    TITLE "0:"
    INDEX 01 00:17:57
  TRACK 30 AUDIO
    TITLE "12:cjc026_10211"
    INDEX 01 00:18:07
  TRACK 31 AUDIO
    TITLE "0:"
    INDEX 01 00:19:01
  TRACK 32 AUDIO
    TITLE "10:cjc026_10212"
    INDEX 01 00:19:28
  TRACK 33 AUDIO
    TITLE "0:"
    INDEX 01 00:20:22
  TRACK 34 AUDIO
    TITLE "11:cjc026_10213"
    INDEX 01 00:20:47
  TRACK 35 AUDIO
    TITLE "0:"
    INDEX 01 00:21:47
  TRACK 36 AUDIO
    TITLE "12:cjc026_10214"
    INDEX 01 00:21:74
  TRACK 37 AUDIO
    TITLE "0:"
    INDEX 01 00:22:68
  TRACK 38 AUDIO
    TITLE "10:cjc026_10215"
    INDEX 01 00:23:18
  TRACK 39 AUDIO
    TITLE "0:"
    INDEX 01 00:24:06
  TRACK 40 AUDIO
    TITLE "11:cjc026_10216"
    INDEX 01 00:24:33
  TRACK 41 AUDIO
    TITLE "0:"
    INDEX 01 00:25:35
  TRACK 42 AUDIO
    TITLE "12:cjc026_10217"
    INDEX 01 00:25:62
  TRACK 43 AUDIO
    TITLE "0:"
    INDEX 01 00:26:52
  TRACK 44 AUDIO
    TITLE "10:cjc026_10218"
    INDEX 01 00:27:02
  TRACK 45 AUDIO
    TITLE "0:"
    INDEX 01 00:27:73
  TRACK 46 AUDIO
    TITLE "11:cjc026_10219"
    INDEX 01 00:28:25
  TRACK 47 AUDIO
    TITLE "0:"
    INDEX 01 00:29:33
  TRACK 48 AUDIO
    TITLE "12:cjc026_10220"
    INDEX 01 00:29:60
  TRACK 49 AUDIO
    TITLE "0:"
    INDEX 01 00:30:55
  TRACK 50 AUDIO
    TITLE "10:cjc026_10221"
    INDEX 01 00:31:08
  TRACK 51 AUDIO
    TITLE "0:"
    INDEX 01 00:31:73
  TRACK 52 AUDIO
    TITLE "11:cjc026_10222"
    INDEX 01 00:32:25
  TRACK 53 AUDIO
    TITLE "0:"
    INDEX 01 00:33:34
  TRACK 54 AUDIO
    TITLE "12:cjc026_10223"
    INDEX 01 00:33:58
  TRACK 55 AUDIO
    TITLE "0:"
    INDEX 01 00:34:47
  TRACK 56 AUDIO
    TITLE "10:cjc026_10224"
    INDEX 01 00:35:00
  TRACK 57 AUDIO
    TITLE "0:"
    INDEX 01 00:36:01
  TRACK 58 AUDIO
    TITLE "11:cjc026_10225"
    INDEX 01 00:36:27
  TRACK 59 AUDIO
    TITLE "0:"
    INDEX 01 00:37:20
  TRACK 60 AUDIO
    TITLE "12:cjc026_10226"
    INDEX 01 00:37:48
  TRACK 61 AUDIO
    TITLE "0:"
    INDEX 01 00:38:47
  TRACK 62 AUDIO
    TITLE "10:cjc026_10227"
    INDEX 01 00:39:00
  TRACK 63 AUDIO
    TITLE "0:"
    INDEX 01 00:39:62
  TRACK 64 AUDIO
    TITLE "11:cjc026_10228"
    INDEX 01 00:40:17
  TRACK 65 AUDIO
    TITLE "0:"
    INDEX 01 00:41:16
  TRACK 66 AUDIO
    TITLE "12:cjc026_10229"
    INDEX 01 00:41:44
  TRACK 67 AUDIO
    TITLE "0:"
    INDEX 01 00:42:33
  TRACK 68 AUDIO
    TITLE "10:cjc026_10230"
    INDEX 01 00:42:61
  TRACK 69 AUDIO
    TITLE "0:"
    INDEX 01 00:43:64
  TRACK 70 AUDIO
    TITLE "11:cjc026_10231"
    INDEX 01 00:44:16
  TRACK 71 AUDIO
    TITLE "0:"
    INDEX 01 00:45:26
  TRACK 72 AUDIO
    TITLE "12:cjc026_10232"
    INDEX 01 00:45:53
  TRACK 73 AUDIO
    TITLE "0:"
    INDEX 01 00:46:56
  TRACK 74 AUDIO
    TITLE "10:cjc026_10233"
    INDEX 01 00:47:09
  TRACK 75 AUDIO
    TITLE "0:"
    INDEX 01 00:48:08
  TRACK 76 AUDIO
    TITLE "11:cjc026_10234"
    INDEX 01 00:48:36
  TRACK 77 AUDIO
    TITLE "0:"
    INDEX 01 00:49:57
  TRACK 78 AUDIO
    TITLE "12:cjc026_10235"
    INDEX 01 00:50:05
  TRACK 79 AUDIO
    TITLE "0:"
    INDEX 01 00:51:07
  TRACK 80 AUDIO
    TITLE "10:cjc026_10236"
    INDEX 01 00:51:34
  TRACK 81 AUDIO
    TITLE "0:"
    INDEX 01 00:52:37
  TRACK 82 AUDIO
    TITLE "11:cjc026_10237"
    INDEX 01 00:52:65
  TRACK 83 AUDIO
    TITLE "0:"
    INDEX 01 00:53:62
  TRACK 84 AUDIO
    TITLE "12:cjc026_10238"
    INDEX 01 00:54:13
  TRACK 85 AUDIO
    TITLE "0:"
    INDEX 01 00:55:16
  TRACK 86 AUDIO
    TITLE "10:cjc026_10239"
    INDEX 01 00:55:46
  TRACK 87 AUDIO
    TITLE "0:"
    INDEX 01 00:56:41
  TRACK 88 AUDIO
    TITLE "11:cjc026_10240"
    INDEX 01 00:56:71
  TRACK 89 AUDIO
    TITLE "0:"
    INDEX 01 00:57:66
  TRACK 90 AUDIO
    TITLE "12:cjc026_10241"
    INDEX 01 00:58:17
  TRACK 91 AUDIO
    TITLE "0:"
    INDEX 01 00:59:14
